<svg width="336" height="197" viewBox="0 0 336 197" fill="none" xmlns="http://www.w3.org/2000/svg">
<path fill-rule="evenodd" clip-rule="evenodd" d="M236.44 1.91L234.53 0L232.62 1.91L234.53 3.82L236.44 1.91ZM223.05 15.32L221.17 13.41L223.08 11.5L224.99 13.41L223.05 15.32ZM236.44 13.41L234.53 11.5L232.62 13.41L234.53 15.32L236.44 13.41ZM234.53 23L236.44 24.91L234.53 26.82L232.62 24.91L234.53 23ZM246.02 11.47L247.92 13.38L246.02 15.29L244.11 13.38L246.02 11.47Z" fill="#F0B90B"/>
<path fill-rule="evenodd" clip-rule="evenodd" d="M63.17 135.67V107.03H89.88V135.67H104.09V162.16H89.88V183.91H63.17V162.16H0.5V135.67L53.05 30.5701H83.63L31.08 135.67H63.17Z" fill="white"/>
<path fill-rule="evenodd" clip-rule="evenodd" d="M62.67 184.41H90.38V162.66H104.59V135.17H90.38V106.53H62.67V135.17H31.89L84.08 30.8001L84.44 30.0701H52.74L0 135.55V162.66H62.67V184.41ZM89.38 183.41H63.67V161.66H1V135.79L53.36 31.0701H82.82L30.64 135.44L30.28 136.17H63.67V107.53H89.38V136.17H103.59V161.66H89.38V183.41Z" fill="#C1C1C1"/>
<path fill-rule="evenodd" clip-rule="evenodd" d="M123.8 74.94V139.54C123.8 168.83 145.55 185.24 170.31 185.2C195.29 185.2 217.04 168.83 217.04 139.54V74.94C217.04 45.65 195.31 29.28 170.31 29.28C145.55 29.28 123.8 45.65 123.8 74.94ZM189.05 75.33V139.33C189.05 152.24 181.51 160 170.31 160C159.33 160 151.79 152.25 151.79 139.33V75.33C151.79 62.44 159.31 54.44 170.31 54.44C181.51 54.44 189.05 62.41 189.05 75.33Z" fill="white"/>
<path fill-rule="evenodd" clip-rule="evenodd" d="M137.43 173.7C145.93 181.45 157.61 185.7 170.31 185.7C193.06 185.7 217.54 171.24 217.54 139.52V74.92C217.54 43.2 193.06 28.76 170.31 28.76C157.61 28.76 145.93 33.03 137.43 40.76C128.18 49.16 123.3 60.94 123.3 74.94V139.52C123.3 153.48 128.18 165.3 137.43 173.7ZM124.31 74.94C124.31 43.91 148.15 29.78 170.31 29.78C192.58 29.78 216.54 43.91 216.54 74.94V139.54C216.54 170.57 192.58 184.7 170.31 184.7C138.71 184.7 124.31 161.29 124.31 139.54V74.94ZM170.31 160.5C158.76 160.5 151.31 152.19 151.31 139.33V75.33C151.31 62.33 158.78 53.94 170.31 53.94C181.84 53.94 189.55 62.33 189.55 75.33V139.33C189.55 152.24 182 160.5 170.31 160.5ZM152.31 75.37C152.31 62.98 159.37 54.98 170.31 54.98C181.39 54.98 188.55 62.98 188.55 75.37V139.37C188.55 151.81 181.56 159.54 170.31 159.54C159.39 159.54 152.31 151.62 152.31 139.37V75.37Z" fill="#C1C1C1"/>
<path fill-rule="evenodd" clip-rule="evenodd" d="M281.76 117.55V93.24H285.85C299.63 93.24 305.23 84.84 305.23 74.08C305.23 61.15 296.62 54.48 286.5 54.48C275.95 54.48 268.19 61.37 267.55 73H239.55C240.41 45.43 260.66 29.28 286.5 29.28C313.63 29.28 333.23 47.16 333.23 73.21C333.23 89.8 325.69 99.27 315.57 104.66C326.77 110.47 335.38 120.81 335.38 139.54C335.38 170.12 312.99 185.2 286.71 185.2C261.71 185.2 238.26 172.06 237.83 139.97H265.83C266.26 153.76 275.74 159.97 286.72 159.97C298.57 159.97 307.4 152.65 307.4 138.65C307.4 126.09 299.82 117.74 286.32 117.55H281.76Z" fill="white"/>
<path fill-rule="evenodd" clip-rule="evenodd" d="M237.33 139.98C237.78 173.7 263.14 185.7 286.71 185.7C316.58 185.7 335.88 167.58 335.92 139.49C335.92 123.31 329.45 111.6 316.66 104.6C328.02 98.22 333.77 87.65 333.77 73.16C333.77 47 314.35 28.73 286.54 28.73C258.98 28.73 239.92 46.49 239.09 72.93V73.45H268.09V72.98C268.69 62.06 275.94 54.98 286.54 54.98C299.14 54.98 304.77 64.57 304.77 74.08C304.77 81.05 302.32 92.74 285.89 92.74H281.3V118.08H286.3C299.17 118.24 306.9 125.86 306.9 138.68C306.9 151.5 299.17 159.5 286.72 159.5C277.16 159.5 266.78 154.37 266.33 139.96V139.47H237.33V139.98ZM286.71 184.7C263.73 184.7 239.02 173.07 238.34 140.47H265.33C266.02 155.2 276.78 160.47 286.7 160.47C299.76 160.47 307.88 152.11 307.88 138.65C307.88 125.51 299.61 117.23 286.3 117.05H282.25V93.74H285.84C298.48 93.74 305.72 86.57 305.72 74.08C305.72 64.07 299.78 53.98 286.49 53.98C275.47 53.98 267.89 61.23 267.07 72.5H240.07C241.11 46.92 259.7 29.78 286.5 29.78C313.73 29.78 332.73 47.64 332.73 73.21C332.73 87.65 326.88 98.08 315.34 104.21L314.5 104.66L315.34 105.1C328.31 111.83 334.88 123.42 334.88 139.54C334.88 172.87 308.94 184.7 286.71 184.7Z" fill="#C1C1C1"/>
<path fill-rule="evenodd" clip-rule="evenodd" d="M190.3 93.87H187.8V73.11C187.8 63.5113 180.019 55.73 170.42 55.73C160.821 55.73 153.04 63.5113 153.04 73.11V93.87H150.54V73.11C150.54 62.1306 159.441 53.23 170.42 53.23C181.399 53.23 190.3 62.1306 190.3 73.11V93.87Z" fill="black"/>
<rect x="137.75" y="87.6899" width="65.33" height="52.73" fill="url(#paint0_linear)"/>
<rect x="169.17" y="100.89" width="2.5" height="24.14" fill="black"/>
<path fill-rule="evenodd" clip-rule="evenodd" d="M59.83 118.6L57.92 116.69L56.01 118.6L57.92 120.51L59.83 118.6ZM46.44 132L44.53 130.09L46.44 128.18L48.35 130.09L46.44 132ZM59.83 130.09L57.92 128.18L56.01 130.09L57.92 132L59.83 130.09ZM57.92 139.69L59.83 141.6L57.92 143.51L56.01 141.6L57.92 139.69ZM69.41 128.15L71.31 130.06L69.41 131.97L67.5 130.06L69.41 128.15Z" fill="#F0B90B"/>
<path fill-rule="evenodd" clip-rule="evenodd" d="M171.383 40.9301C171.744 40.9452 172.097 40.9599 172.45 40.9599L172.6 38.4599C171.89 38.3999 171.17 38.3999 170.48 38.3999H170.01V40.8999H170.45C170.77 40.9045 171.079 40.9174 171.383 40.9301ZM164.79 41.4099L164.786 41.3885C165.548 41.2356 166.331 41.148 167.17 41.0699L166.91 38.5899C166.04 38.6699 165.18 38.7999 164.34 38.9499L164.786 41.3885L164.73 41.3999L164.79 41.4099ZM175.32 41.2699C176.11 41.3899 176.9 41.5399 177.68 41.7199L178.24 39.2899C177.41 39.0899 176.55 38.9299 175.7 38.7999L175.32 41.2699ZM159.68 42.7899L159.671 42.7652C160.409 42.5001 161.184 42.2366 161.97 42.0599L161.3 39.6499C160.47 39.8799 159.64 40.1499 158.82 40.4399L159.671 42.7652L159.63 42.7799L159.68 42.7899ZM180.43 42.5099C181.19 42.7599 181.95 43.0399 182.68 43.3499L183.65 41.0499C182.86 40.7199 182.04 40.4099 181.22 40.1299L180.43 42.5099ZM154.88 45.0099L154.866 44.9853C155.548 44.6006 156.25 44.2356 157.01 43.8999L155.94 41.6399C155.16 42.0099 154.38 42.4099 153.64 42.8399L154.866 44.9853L154.84 44.9999L154.88 45.0099ZM185.28 44.5899C185.98 44.9599 186.68 45.3699 187.36 45.7999L188.7 43.6899C187.97 43.2299 187.21 42.7899 186.46 42.3799L185.28 44.5899ZM150.52 47.9999L150.499 47.9745C151.113 47.4798 151.747 46.9953 152.44 46.5499L151.01 44.4999C150.3 44.9899 149.61 45.5199 148.94 46.0699L150.499 47.9745L150.48 47.9899L150.52 47.9999ZM189.68 47.4499C190.31 47.9399 190.93 48.4599 191.52 48.9999L193.21 47.1099C192.55 46.5299 191.88 45.9699 191.21 45.4499L189.68 47.4499ZM146.68 51.6699L144.8 50.0299C145.36 49.3799 145.96 48.7499 146.58 48.1399L148.33 49.9299C147.76 50.4799 147.17 51.0599 146.68 51.6599V51.6699ZM193.58 51.0199C194.14 51.5999 194.65 52.2199 195.14 52.8399L197.1 51.3199C196.57 50.6099 196 49.9499 195.41 49.3199L193.58 51.0199ZM143.54 55.9299L141.41 54.6099C141.86 53.8799 142.35 53.1499 142.85 52.4599L144.85 53.9299C144.41 54.5599 143.96 55.2399 143.54 55.9199V55.9299ZM196.83 55.1799C197.27 55.8499 197.69 56.5399 198.07 57.2399L200.26 56.0399C199.85 55.2799 199.4 54.5299 198.92 53.8099L196.83 55.1799ZM141.17 60.6299L138.85 59.6899C139.17 58.8899 139.53 58.0999 139.91 57.3299L142.17 58.4399C141.79 59.1499 141.45 59.8899 141.17 60.6299ZM199.35 59.8199C199.67 60.5499 199.97 61.3099 200.23 62.0599L202.59 61.2399C202.31 60.4199 201.99 59.6099 201.64 58.8199L199.35 59.8199ZM139.6 65.6699L137.17 65.1399C137.35 64.2899 137.57 63.4499 137.82 62.6299L140.21 63.3499C139.97 64.1099 139.77 64.8899 139.6 65.6699ZM201.05 64.8199C201.24 65.5999 201.41 66.3899 201.54 67.1799L204 66.7599C203.86 65.9199 203.68 65.0599 203.48 64.2199L201.05 64.8199ZM138.91 70.9099L136.41 70.7899C136.41 70.0243 136.503 69.2586 136.593 68.5135L136.593 68.5132L136.593 68.5128C136.606 68.4114 136.618 68.3105 136.63 68.2099L139.11 68.5099C139.02 69.2999 138.95 70.1099 138.91 70.9099ZM204.47 72.4399H201.97C201.97 71.6266 201.94 70.8266 201.88 70.0399L204.38 69.8499C204.44 70.6999 204.47 71.5699 204.47 72.4399Z" fill="#E0E0E0"/>
<rect x="264.08" y="106.443" width="2.7" height="2.7" transform="rotate(45 264.08 106.443)" fill="#E0E0E0"/>
<rect x="275.557" y="106.44" width="2.7" height="2.7" transform="rotate(45 275.557 106.44)" fill="#E0E0E0"/>
<rect x="275.565" y="117.942" width="2.7" height="2.7" transform="rotate(45 275.565 117.942)" fill="#E0E0E0"/>
<rect x="275.558" y="94.97" width="2.7" height="2.7" transform="rotate(45 275.558 94.97)" fill="#E0E0E0"/>
<rect x="287.035" y="106.438" width="2.7" height="2.7" transform="rotate(45 287.035 106.438)" fill="#E0E0E0"/>
<rect x="100.398" y="181.096" width="2.7" height="2.7" transform="rotate(45 100.398 181.096)" fill="#E0E0E0"/>
<rect x="111.875" y="181.104" width="2.7" height="2.7" transform="rotate(45 111.875 181.104)" fill="#E0E0E0"/>
<rect x="111.884" y="192.605" width="2.7" height="2.7" transform="rotate(45 111.884 192.605)" fill="#E0E0E0"/>
<rect x="111.876" y="169.633" width="2.7" height="2.7" transform="rotate(45 111.876 169.633)" fill="#E0E0E0"/>
<rect x="123.353" y="181.101" width="2.7" height="2.7" transform="rotate(45 123.353 181.101)" fill="#E0E0E0"/>
<defs>
<linearGradient id="paint0_linear" x1="177.474" y1="167.407" x2="222.067" y2="98.9552" gradientUnits="userSpaceOnUse">
<stop stop-color="#F0B90B"/>
<stop offset="0.28" stop-color="#F1BC0F"/>
<stop offset="0.57" stop-color="#F4C41C"/>
<stop offset="0.86" stop-color="#F8D230"/>
<stop offset="0.99" stop-color="#FBDA3C"/>
</linearGradient>
</defs>
</svg>
